<svg xmlns="http://www.w3.org/2000/svg" viewBox="0 0 150 108" width="150" height="108" role="img" aria-label="OpenAKB">
  
  <g transform="translate(47,8) scale(1.16667)">
    <path d="M38.34 19.61 A15 15 0 1 1 28.39 9.66" fill="none" stroke="#1A63E0" stroke-width="4.4" stroke-linecap="round"></path>
    <line x1="27.9" y1="20.1" x2="31.8" y2="16.2" stroke="#1A63E0" stroke-width="3" stroke-linecap="round"></line>
    <circle cx="24" cy="24" r="5.6" fill="#1A63E0"></circle>
    <circle cx="34.61" cy="13.39" r="4.1" fill="#2FBCEA"></circle>
  </g>
  <path d="M36.46 80.20Q39.29 80.20 41.12 82.36Q42.96 84.52 42.96 87.86Q42.96 92.08 40.78 94.67Q38.59 97.26 35.04 97.26Q32.28 97.26 30.41 95.04Q28.54 92.82 28.54 89.56Q28.54 85.48 30.77 82.84Q33 80.20 36.46 80.20M39.70 89.20Q39.70 83.13 35.71 83.13Q33.89 83.13 32.84 84.48Q31.80 85.84 31.80 88.54Q31.80 91.24 32.92 92.98Q34.03 94.72 35.87 94.72Q37.70 94.72 38.70 93.24Q39.70 91.77 39.70 89.20M51.48 84.88Q53.02 84.88 54.06 86.22Q55.10 87.57 55.10 89.85Q55.10 93.04 53.46 95.02Q51.82 97 49.37 97Q48.86 97 48.24 96.93L48.36 101.51L45.07 102.11L45.38 91.17L45.41 91.17Q45.31 87.95 44.88 85.41L47.78 84.78Q47.93 86.06 48.02 87.30Q48.07 87.18 48.52 86.64Q48.96 86.10 49.82 85.49Q50.69 84.88 51.48 84.88M50.54 88Q49.27 88 48.07 88.70L48.07 90.76L48.17 94.19Q49.46 94.41 50.14 94.41Q52.44 94.41 52.44 91.20Q52.44 88 50.54 88M61.42 94.55Q62.11 94.55 62.88 94.19Q63.65 93.83 64.08 93.47L64.51 93.11L65.62 94.46Q65.38 94.86 64.87 95.39Q64.37 95.92 63.85 96.29Q63.34 96.66 62.48 96.96Q61.63 97.26 60.72 97.26Q58.78 97.26 57.55 95.79Q56.33 94.31 56.33 91.98Q56.33 89.06 58.03 86.85Q59.74 84.64 62.02 84.64Q63.77 84.64 64.74 85.62Q65.71 86.61 65.71 88.38Q65.71 89.44 65.35 90.78L64.87 91.29L58.87 91.84Q59.28 94.55 61.42 94.55M61.42 87.11Q60.36 87.11 59.64 87.96Q58.92 88.82 58.80 90.14L62.88 89.63Q62.95 89.08 62.95 88.72Q62.95 87.11 61.42 87.11M74.76 90.93Q74.76 89.27 74.47 88.72Q74.18 88.17 73.13 88.17Q72.07 88.17 70.73 89.01L70.73 90.76L70.99 96.40L67.78 97L68.06 91.17Q67.97 87.95 67.54 85.41L70.44 84.78Q70.61 86.18 70.68 87.50Q71.04 87.02 71.50 86.55Q71.95 86.08 72.94 85.49Q73.92 84.90 75.01 84.90Q76.10 84.90 76.85 85.76Q77.59 86.61 77.59 88.07L77.45 90.76L77.71 96.52L74.47 97.12L74.76 90.93M94.03 96.59L90.58 97.12L89.40 92.44L83.66 92.44L82.39 97L79.32 96.76L81.43 90.93L84.65 80.61L88.94 80.30L92.04 90.57L94.03 96.59M88.68 89.90L86.78 83.42L86.47 83.42L84.41 89.90L88.68 89.90M96.31 80.92L99.72 80.32L99.46 88.14L105.58 80.37L108.02 82L102.50 88.41L108.36 95.34L105.29 97.26L99.43 88.98L99.38 90.76L99.67 97L96.31 97L96.60 91.17L96.31 80.92M110.18 80.44L115.39 80.44Q117.70 80.44 119.04 81.48Q120.38 82.53 120.38 84.28Q120.38 87.09 118.08 88.19Q121.20 89.27 121.20 92.18Q121.20 94.36 119.33 95.81Q117.46 97.26 114.62 97.26Q113.14 97.26 110.18 97L110.47 91.17L110.18 80.44M115.08 89.87L113.14 89.87L113.11 90.76L113.28 94.67Q114.67 94.79 115.42 94.79Q116.69 94.79 117.40 94.16Q118.10 93.52 118.10 92.30Q118.10 91.07 117.38 90.47Q116.66 89.87 115.08 89.87M114.53 82.86L113.35 82.86L113.21 87.54L114.77 87.54Q115.99 87.54 116.64 86.88Q117.29 86.22 117.29 85Q117.29 82.86 114.53 82.86" fill="#0E1A2B"></path>
</svg>
