<svg xmlns="http://www.w3.org/2000/svg" viewBox="0 0 220 60" width="220" height="60" role="img" aria-label="OpenAKB">
  
  <g transform="translate(6,6)">
    <path d="M38.34 19.61 A15 15 0 1 1 28.39 9.66" fill="none" stroke="#1A63E0" stroke-width="4.4" stroke-linecap="round"></path>
    <line x1="27.9" y1="20.1" x2="31.8" y2="16.2" stroke="#1A63E0" stroke-width="3" stroke-linecap="round"></line>
    <circle cx="24" cy="24" r="5.6" fill="#1A63E0"></circle>
    <circle cx="34.61" cy="13.39" r="4.1" fill="#2FBCEA"></circle>
  </g>
  <path d="M77.16 19.30Q80.82 19.30 83.19 22.09Q85.56 24.88 85.56 29.19Q85.56 34.65 82.74 37.99Q79.92 41.34 75.33 41.34Q71.77 41.34 69.35 38.47Q66.93 35.61 66.93 31.39Q66.93 26.12 69.81 22.71Q72.70 19.30 77.16 19.30M81.34 30.93Q81.34 23.08 76.20 23.08Q73.84 23.08 72.49 24.83Q71.15 26.59 71.15 30.07Q71.15 33.56 72.59 35.81Q74.03 38.05 76.40 38.05Q78.77 38.05 80.06 36.15Q81.34 34.24 81.34 30.93M96.57 25.34Q98.55 25.34 99.90 27.08Q101.25 28.82 101.25 31.76Q101.25 35.88 99.12 38.44Q97 41 93.84 41Q93.19 41 92.38 40.91L92.54 46.83L88.29 47.60L88.69 33.47L88.72 33.47Q88.60 29.31 88.04 26.03L91.79 25.22Q91.98 26.86 92.10 28.48Q92.16 28.32 92.74 27.62Q93.31 26.93 94.43 26.14Q95.54 25.34 96.57 25.34M95.36 29.38Q93.71 29.38 92.16 30.27L92.16 32.94L92.29 37.37Q93.96 37.65 94.83 37.65Q97.81 37.65 97.81 33.51Q97.81 29.38 95.36 29.38M109.40 37.84Q110.30 37.84 111.29 37.37Q112.28 36.91 112.84 36.44L113.40 35.98L114.83 37.71Q114.52 38.24 113.86 38.92Q113.21 39.60 112.55 40.09Q111.88 40.57 110.78 40.95Q109.68 41.34 108.50 41.34Q105.99 41.34 104.41 39.43Q102.83 37.53 102.83 34.52Q102.83 30.74 105.03 27.89Q107.23 25.04 110.18 25.04Q112.44 25.04 113.69 26.31Q114.95 27.58 114.95 29.87Q114.95 31.23 114.48 32.97L113.86 33.62L106.11 34.34Q106.64 37.84 109.40 37.84M109.40 28.23Q108.04 28.23 107.11 29.33Q106.18 30.43 106.02 32.13L111.29 31.48Q111.38 30.77 111.38 30.30Q111.38 28.23 109.40 28.23M126.64 33.16Q126.64 31.02 126.26 30.30Q125.89 29.59 124.53 29.59Q123.16 29.59 121.43 30.68L121.43 32.94L121.77 40.23L117.62 41L117.99 33.47Q117.86 29.31 117.31 26.03L121.06 25.22Q121.27 27.02 121.37 28.72Q121.83 28.10 122.42 27.50Q123.01 26.89 124.28 26.14Q125.55 25.38 126.96 25.38Q128.37 25.38 129.33 26.48Q130.29 27.58 130.29 29.47L130.11 32.94L130.45 40.38L126.26 41.16L126.64 33.16M151.53 40.47L147.06 41.16L145.55 35.11L138.14 35.11L136.49 41L132.53 40.69L135.25 33.16L139.41 19.83L144.96 19.42L148.96 32.69L151.53 40.47M144.62 31.82L142.17 23.45L141.76 23.45L139.10 31.82L144.62 31.82M154.47 20.23L158.88 19.46L158.53 29.56L166.44 19.52L169.60 21.63L162.47 29.90L170.04 38.86L166.07 41.34L158.50 30.65L158.44 32.94L158.81 41L154.47 41L154.85 33.47L154.47 20.23M172.39 19.61L179.12 19.61Q182.09 19.61 183.83 20.96Q185.57 22.31 185.57 24.57Q185.57 28.20 182.59 29.62Q186.62 31.02 186.62 34.77Q186.62 37.59 184.20 39.47Q181.78 41.34 178.13 41.34Q176.21 41.34 172.39 41L172.76 33.47L172.39 19.61M178.72 31.79L176.21 31.79L176.17 32.94L176.39 37.99Q178.19 38.15 179.15 38.15Q180.79 38.15 181.71 37.33Q182.62 36.51 182.62 34.92Q182.62 33.34 181.69 32.57Q180.76 31.79 178.72 31.79M178 22.74L176.48 22.74L176.30 28.79L178.31 28.79Q179.89 28.79 180.73 27.93Q181.57 27.08 181.57 25.50Q181.57 22.74 178 22.74" fill="#0E1A2B"></path>
</svg>
